<svg width="40" height="30" viewBox="0 0 40 30" fill="none" xmlns="http://www.w3.org/2000/svg">
<path d="M36.7884 3.16885C40.1956 6.57601 40.1956 12.1001 36.7884 15.5073L25.8209 26.4748C22.4138 29.8819 16.8897 29.8819 13.4825 26.4748C10.0753 23.0676 10.0753 17.5435 13.4825 14.1363L24.45 3.16885C27.8572 -0.238309 33.3813 -0.23831 36.7884 3.16885Z" fill="#7390F9"/>
<path d="M25.8613 26.4746C22.4541 29.8817 16.93 29.8817 13.5229 26.4746L2.55537 15.5071C-0.85179 12.0999 -0.851791 6.57582 2.55537 3.16865C5.96253 -0.238508 11.4866 -0.238511 14.8938 3.16865L25.8613 14.1361C29.2685 17.5433 29.2685 23.0674 25.8613 26.4746Z" fill="#FF774C"/>
<path d="M26.3425 25.9598L25.8209 26.4814C24.1336 28.1687 21.9271 29.0204 19.7156 29.0365C17.475 29.0426 15.2324 28.1908 13.5229 26.4812L12.999 25.9573C10.0838 22.5295 10.245 17.3805 13.4825 14.143L19.672 7.95348L25.8613 14.1428C29.0997 17.3812 29.2601 22.532 26.3425 25.9598Z" fill="#242F65"/>
</svg>
