<svg width="195" height="198" viewBox="0 0 195 198" fill="none" xmlns="http://www.w3.org/2000/svg">
<path d="M119.965 16.1186C119.506 16.6278 118.902 16.9672 118.153 17.1855C117.403 17.3794 116.558 17.3794 115.615 17.1855C114.673 16.9915 113.851 16.6278 113.199 16.1429C112.547 15.658 112.039 15.076 111.725 14.3729C111.411 13.6698 111.314 12.9181 111.411 12.0938L114.238 12.6999C114.19 13.2576 114.311 13.7668 114.6 14.2032C114.89 14.6396 115.35 14.9306 115.978 15.0518C116.534 15.173 116.993 15.1245 117.355 14.8821C117.718 14.6396 117.935 14.3002 118.032 13.8395C118.128 13.4273 118.08 13.0636 117.887 12.7242C117.718 12.409 117.452 12.118 117.113 11.8756C116.775 11.6331 116.316 11.3421 115.712 10.9784C114.939 10.5178 114.311 10.1056 113.851 9.71765C113.392 9.32971 113.03 8.84478 112.764 8.23863C112.498 7.63248 112.474 6.92934 112.643 6.08072C112.885 4.94115 113.489 4.11678 114.455 3.63186C115.422 3.14694 116.582 3.04995 117.959 3.34091C119.361 3.65611 120.424 4.23802 121.1 5.08663C121.801 5.95949 122.067 6.95358 121.946 8.1174L119.071 7.487C119.095 6.97783 118.974 6.5414 118.708 6.17771C118.442 5.78977 118.032 5.54731 117.476 5.42608C116.993 5.32909 116.558 5.35334 116.195 5.54731C115.833 5.74128 115.615 6.08072 115.495 6.56565C115.446 6.97783 115.495 7.34152 115.664 7.65672C115.833 7.97192 116.099 8.23863 116.413 8.48109C116.727 8.72355 117.186 9.01451 117.766 9.35395C118.563 9.83888 119.192 10.2753 119.675 10.6632C120.158 11.0512 120.521 11.5361 120.786 12.1665C121.052 12.7727 121.076 13.5243 120.907 14.3729C120.738 15.0276 120.448 15.6095 119.965 16.1186Z" fill="#242F65"/>
<path d="M139.876 12.2635C140.552 13.5243 140.77 14.9063 140.48 16.4338L137.846 15.2942C137.87 14.4941 137.677 13.791 137.266 13.1363C136.855 12.5059 136.251 11.9968 135.454 11.6573C134.801 11.3664 134.125 11.2694 133.448 11.3664C132.772 11.4633 132.143 11.7543 131.588 12.2392C131.032 12.7241 130.573 13.3788 130.21 14.2274C129.848 15.0518 129.703 15.8277 129.727 16.5793C129.751 17.3309 129.969 17.9856 130.355 18.5432C130.742 19.1009 131.273 19.5373 131.926 19.8283C132.723 20.1677 133.496 20.2889 134.246 20.1435C134.995 19.998 135.647 19.6585 136.203 19.1009L138.837 20.2405C137.918 21.477 136.759 22.2771 135.381 22.6408C134.004 23.0045 132.53 22.8348 130.983 22.1559C129.799 21.6467 128.857 20.8951 128.18 19.9737C127.504 19.0281 127.117 17.9613 127.045 16.7733C126.972 15.5852 127.19 14.3729 127.721 13.1363C128.253 11.8998 129.002 10.9057 129.92 10.1298C130.838 9.37818 131.878 8.9175 133.013 8.79627C134.149 8.6508 135.333 8.84476 136.541 9.37818C138.088 10.0328 139.199 11.0027 139.876 12.2635Z" fill="#242F65"/>
<path d="M147.512 31.563L147.947 25.356L146.956 24.6771L143.912 29.0414L141.688 27.4654L149.517 16.2637L153.77 19.2459C155.075 20.1673 155.824 21.1614 156.066 22.2767C156.307 23.392 156.066 24.4589 155.341 25.5015C154.761 26.3501 154.012 26.8835 153.142 27.1259C152.272 27.3684 151.33 27.2714 150.315 26.835L149.977 33.2602L147.512 31.563ZM148.043 23.1496L149.88 24.4346C151.161 25.3317 152.2 25.2105 152.973 24.0709C153.359 23.5375 153.48 23.0041 153.384 22.4707C153.287 21.9373 152.9 21.4523 152.248 20.9917L150.412 19.7066L148.043 23.1496Z" fill="#242F65"/>
<path d="M170.177 34.9095C170.467 36.0733 170.419 37.2371 170.056 38.4009C169.694 39.5647 169.041 40.6073 168.051 41.5287C167.084 42.45 165.997 43.0562 164.813 43.3714C163.629 43.6623 162.445 43.6381 161.309 43.2987C160.173 42.9592 159.158 42.3046 158.288 41.3832C157.419 40.4619 156.839 39.4193 156.549 38.2555C156.259 37.0916 156.307 35.9278 156.67 34.7398C157.032 33.5759 157.709 32.5091 158.675 31.5878C159.642 30.6664 160.729 30.0603 161.913 29.7693C163.097 29.4783 164.257 29.5026 165.393 29.842C166.528 30.1815 167.543 30.8361 168.413 31.7575C169.307 32.7031 169.887 33.7457 170.177 34.9095ZM164.764 32.3394C164.088 32.1454 163.387 32.1454 162.662 32.3636C161.937 32.5819 161.236 32.994 160.584 33.6244C159.932 34.2548 159.472 34.9095 159.207 35.6369C158.941 36.34 158.893 37.0431 159.062 37.7463C159.207 38.4252 159.569 39.0798 160.125 39.6617C160.681 40.2436 161.285 40.6316 161.961 40.8255C162.638 41.0195 163.339 40.9953 164.064 40.7771C164.788 40.5588 165.489 40.1467 166.142 39.5163C166.794 38.8859 167.253 38.2312 167.519 37.5038C167.785 36.7764 167.833 36.0975 167.664 35.3944C167.519 34.7155 167.157 34.0609 166.601 33.479C166.069 32.9213 165.465 32.5334 164.764 32.3394Z" fill="#242F65"/>
<path d="M169.524 52.0997L172.013 55.9549L170.249 57.0945L166.311 50.9359L177.788 43.5166L179.262 45.82L169.524 52.0997Z" fill="#242F65"/>
<path d="M175.71 63.3739L177.595 67.5685L175.686 68.4171L172.689 61.7252L185.134 56.1001L186.245 58.5974L175.71 63.3739Z" fill="#242F65"/>
<path d="M184.482 91.6695C183.371 91.2573 182.477 90.5542 181.752 89.5843C181.027 88.5903 180.568 87.378 180.35 85.8989L179.649 81.0739L193.133 79.0615L193.833 83.8623C194.051 85.3413 193.954 86.6506 193.568 87.7901C193.181 88.9297 192.504 89.8753 191.586 90.5784C190.668 91.2816 189.508 91.7423 188.155 91.9362C186.802 92.2029 185.594 92.0817 184.482 91.6695ZM184.361 88.5418C185.255 89.2207 186.367 89.4631 187.744 89.2692C189.146 89.0752 190.161 88.4933 190.789 87.5962C191.441 86.6748 191.659 85.511 191.441 84.032L191.151 82.165L182.428 83.4501L182.694 85.317C182.936 86.7718 183.467 87.8386 184.361 88.5418Z" fill="#242F65"/>
<path d="M193.833 109.296C193.156 110.29 192.287 111.066 191.175 111.575C190.063 112.109 188.855 112.327 187.526 112.23C186.197 112.133 185.013 111.745 183.998 111.066C182.984 110.387 182.21 109.514 181.679 108.448C181.171 107.381 180.954 106.193 181.026 104.908C181.123 103.623 181.485 102.483 182.162 101.489C182.814 100.495 183.708 99.7189 184.82 99.2097C185.931 98.6763 187.14 98.4581 188.493 98.5551C189.822 98.6521 191.006 99.04 192.021 99.6947C193.036 100.374 193.809 101.246 194.34 102.313C194.848 103.38 195.065 104.568 194.993 105.853C194.872 107.162 194.51 108.302 193.833 109.296ZM192.069 103.574C191.755 102.944 191.272 102.434 190.619 102.047C189.967 101.659 189.194 101.44 188.3 101.368C187.405 101.295 186.608 101.416 185.907 101.707C185.207 101.998 184.651 102.434 184.264 103.016C183.853 103.598 183.636 104.277 183.588 105.077C183.539 105.877 183.66 106.581 183.974 107.235C184.288 107.866 184.772 108.375 185.424 108.763C186.076 109.151 186.85 109.369 187.744 109.442C188.638 109.514 189.435 109.393 190.136 109.102C190.837 108.811 191.392 108.375 191.779 107.793C192.19 107.211 192.407 106.532 192.456 105.732C192.504 104.908 192.383 104.204 192.069 103.574Z" fill="#242F65"/>
<path d="M187.309 138.416L175.372 130.997L176.411 127.796L186.608 128.427L178.006 122.898L179.045 119.722L193.06 120.765L192.142 123.577L181.437 122.292L190.643 128.16L189.725 130.997L178.827 130.318L188.227 135.603L187.309 138.416Z" fill="#242F65"/>
<path d="M165.635 148.599L167.085 146.272L178.176 146.005L170.322 141.083L171.772 138.755L183.347 146.005L181.897 148.333L170.733 148.551L178.659 153.521L177.209 155.849L165.635 148.599Z" fill="#242F65"/>
<path d="M158.579 175.585L157.153 173.961L159.956 171.439L152.32 162.832L154.35 161.013L161.986 169.621L164.789 167.123L166.239 168.748L158.579 175.585Z" fill="#242F65"/>
<path d="M143.622 184.629C142.438 184.653 141.302 184.338 140.239 183.732C139.176 183.126 138.306 182.228 137.629 181.065C136.952 179.901 136.59 178.713 136.566 177.476C136.542 176.24 136.832 175.124 137.412 174.082C138.016 173.039 138.861 172.191 139.949 171.536C141.036 170.881 142.196 170.566 143.38 170.542C144.564 170.518 145.7 170.833 146.763 171.439C147.826 172.069 148.696 172.942 149.373 174.106C150.049 175.27 150.412 176.458 150.412 177.67C150.436 178.883 150.146 180.022 149.566 181.065C148.962 182.107 148.116 182.956 147.029 183.611C145.965 184.289 144.806 184.629 143.622 184.629ZM147.319 179.925C147.657 179.295 147.802 178.616 147.754 177.864C147.705 177.113 147.439 176.337 147.005 175.561C146.545 174.785 145.99 174.179 145.361 173.767C144.733 173.354 144.057 173.136 143.356 173.136C142.655 173.136 141.954 173.33 141.278 173.742C140.577 174.155 140.07 174.664 139.731 175.294C139.393 175.924 139.248 176.603 139.296 177.355C139.345 178.107 139.61 178.883 140.07 179.658C140.529 180.434 141.084 181.04 141.713 181.453C142.341 181.865 143.018 182.059 143.718 182.083C144.419 182.083 145.12 181.889 145.796 181.477C146.473 181.065 146.98 180.556 147.319 179.925Z" fill="#242F65"/>
<path d="M113.272 183.78C113.465 183.126 113.852 182.544 114.456 182.035C115.036 181.525 115.809 181.162 116.751 180.919C117.694 180.701 118.564 180.653 119.385 180.798C120.207 180.943 120.907 181.259 121.487 181.744C122.067 182.229 122.502 182.883 122.768 183.659L119.941 184.338C119.748 183.805 119.433 183.417 118.974 183.15C118.515 182.883 117.984 182.81 117.38 182.98C116.824 183.101 116.437 183.368 116.22 183.732C116.002 184.095 115.93 184.508 116.051 184.968C116.147 185.381 116.34 185.696 116.655 185.914C116.945 186.132 117.307 186.278 117.718 186.35C118.129 186.423 118.66 186.496 119.361 186.544C120.255 186.617 121.004 186.738 121.584 186.884C122.188 187.029 122.72 187.32 123.203 187.732C123.686 188.169 124.049 188.799 124.242 189.624C124.508 190.763 124.314 191.757 123.662 192.63C123.01 193.479 121.995 194.085 120.642 194.4C119.24 194.74 118.032 194.667 117.041 194.182C116.051 193.697 115.35 192.921 114.987 191.806L117.839 191.127C118.032 191.588 118.322 191.927 118.733 192.169C119.143 192.388 119.627 192.436 120.183 192.315C120.666 192.194 121.028 191.975 121.27 191.636C121.511 191.297 121.56 190.884 121.439 190.399C121.342 190.012 121.149 189.721 120.859 189.502C120.569 189.308 120.231 189.163 119.82 189.09C119.433 189.017 118.902 188.945 118.225 188.896C117.307 188.799 116.534 188.678 115.954 188.557C115.35 188.411 114.818 188.145 114.311 187.708C113.803 187.272 113.441 186.617 113.248 185.768C113.054 185.09 113.054 184.435 113.272 183.78Z" fill="#242F65"/>
<path d="M104.815 194.546L104.598 191.006L99.7648 191.321L99.644 189.236L104.453 188.921L104.211 185.236L98.7983 185.575L98.6533 183.393L106.772 182.859L107.642 196.51L99.5232 197.043L99.3782 194.885L104.815 194.546Z" fill="#242F65"/>
<path d="M89.2292 194.449L89.5917 190.909L84.7832 190.424L85.0006 188.339L89.8092 188.824L90.1716 185.162L84.7832 184.629L85.0006 182.447L93.0954 183.247L91.7423 196.873L83.6475 196.073L83.8649 193.915L89.2292 194.449Z" fill="#242F65"/>
<path d="M57.7685 187.805C57.0436 186.86 56.5845 185.793 56.4395 184.581C56.2946 183.368 56.4637 182.132 56.9711 180.895C57.4786 179.659 58.2035 178.64 59.17 177.865C60.1366 177.089 61.1998 176.628 62.3838 176.483C63.5678 176.337 64.7518 176.483 65.9358 176.967C67.1198 177.452 68.0864 178.156 68.8113 179.101C69.5604 180.047 69.9953 181.114 70.1403 182.35C70.2853 183.562 70.1161 184.799 69.6087 186.036C69.1013 187.272 68.3763 188.29 67.4098 189.042C66.4433 189.794 65.3801 190.254 64.196 190.424C63.012 190.57 61.828 190.424 60.644 189.939C59.46 189.454 58.4934 188.751 57.7685 187.805ZM63.7369 187.902C64.4377 187.805 65.0659 187.49 65.6459 187.005C66.2258 186.496 66.6607 185.842 67.0232 184.993C67.3615 184.144 67.5065 183.368 67.434 182.593C67.3856 181.841 67.144 181.162 66.7091 180.604C66.2983 180.047 65.6942 179.61 64.9693 179.295C64.2202 179.004 63.5195 178.883 62.8187 179.004C62.118 179.101 61.4897 179.416 60.9098 179.925C60.3299 180.435 59.8949 181.089 59.5325 181.938C59.1942 182.787 59.0492 183.562 59.1217 184.338C59.1942 185.09 59.4117 185.745 59.8466 186.326C60.2815 186.884 60.8615 187.321 61.5864 187.636C62.3113 187.951 63.0604 187.999 63.7369 187.902Z" fill="#242F65"/>
<path d="M44.9128 181.574L49.4314 174.955C50.0355 174.058 50.3013 173.282 50.2046 172.555C50.108 171.828 49.6972 171.246 48.9723 170.736C48.2474 170.252 47.5466 170.082 46.8459 170.252C46.1451 170.421 45.5169 170.955 44.9128 171.852L40.4184 178.471L38.1953 176.943L42.6897 170.3C43.3905 169.257 44.1879 168.506 45.0819 168.045C45.9518 167.584 46.87 167.415 47.7883 167.536C48.7065 167.657 49.6005 168.021 50.4704 168.603C51.8236 169.524 52.621 170.664 52.8868 172.046C53.1526 173.404 52.7418 174.883 51.6786 176.459L47.1842 183.102L44.9128 181.574Z" fill="#242F65"/>
<path d="M36.3353 156.722L34.813 162.735L35.6587 163.584L39.4282 159.826L41.3371 161.765L31.6475 171.391L27.9988 167.681C26.8873 166.542 26.3074 165.426 26.2832 164.287C26.2591 163.147 26.6698 162.129 27.5639 161.232C28.2888 160.504 29.1104 160.092 30.0044 160.019C30.8985 159.947 31.8167 160.189 32.7349 160.795L34.2089 154.516L36.3353 156.722ZM34.3055 164.917L32.7349 163.317C31.6475 162.202 30.6085 162.129 29.6178 163.123C29.1587 163.584 28.9171 164.093 28.9171 164.602C28.9171 165.135 29.207 165.693 29.7628 166.251L31.3334 167.851L34.3055 164.917Z" fill="#242F65"/>
<path d="M23.19 142.441L20.9186 138.464L22.7309 137.422L26.3554 143.774L14.5153 150.588L13.1621 148.211L23.19 142.441Z" fill="#242F65"/>
<path d="M15.0475 125.784L16.8839 130.948L19.7835 130.924L20.7501 133.64L6.3486 133.446L5.30957 130.512L16.3282 121.226L17.2947 123.941L15.0475 125.784ZM13.3319 127.19L8.59582 131.045L14.685 130.997L13.3319 127.19Z" fill="#242F65"/>
<path d="M0.404297 109.248L2.53069 108.909L3.11062 112.643L14.4433 110.873L14.8541 113.564L3.5214 115.334L4.10132 119.044L1.95077 119.383L0.404297 109.248Z" fill="#242F65"/>
<path d="M2.19205 99.1857L5.71993 99.2342L5.76826 94.385L7.84632 94.4092L7.798 99.2584L11.4709 99.3069L11.5434 93.8758L13.7181 93.9L13.6214 102.071L-0.00683594 101.877L0.0898183 93.7061L2.24038 93.7303L2.19205 99.1857Z" fill="#242F65"/>
<path d="M14.1051 79.2313C14.6126 79.6919 14.9992 80.2739 15.2167 81.0012C15.4341 81.7286 15.4583 82.6015 15.2892 83.5471C15.12 84.4927 14.8059 85.3171 14.3226 86.0202C13.8635 86.7233 13.2836 87.2325 12.607 87.5719C11.9063 87.9114 11.1572 88.0326 10.3356 87.9599L10.8672 85.0988C11.423 85.1473 11.9063 85.0019 12.3412 84.6867C12.7761 84.3715 13.0419 83.9108 13.1628 83.2804C13.2594 82.7227 13.1869 82.262 12.9453 81.9226C12.7036 81.5589 12.3412 81.3407 11.8821 81.2679C11.4713 81.1952 11.1089 81.2437 10.7706 81.4377C10.4564 81.6316 10.1665 81.8983 9.949 82.2378C9.70737 82.5772 9.44157 83.0379 9.10328 83.6683C8.66833 84.4442 8.28172 85.0988 7.8951 85.5838C7.53265 86.0687 7.04937 86.4566 6.46945 86.7233C5.88952 87.0143 5.16462 87.0628 4.34305 86.9173C3.1832 86.6991 2.36164 86.1172 1.85421 85.1716C1.34677 84.226 1.20179 83.0622 1.46759 81.6801C1.73339 80.2496 2.28915 79.1828 3.11071 78.4554C3.95644 77.728 4.94714 77.4128 6.107 77.5098L5.5754 80.4193C5.06796 80.4193 4.65718 80.5406 4.27056 80.8073C3.90811 81.074 3.66647 81.5104 3.56982 82.0681C3.47317 82.553 3.54566 82.9894 3.73897 83.3531C3.93227 83.7168 4.29473 83.935 4.778 84.0078C5.16462 84.0805 5.52707 84.032 5.81703 83.838C6.107 83.6441 6.39696 83.4016 6.61443 83.0622C6.8319 82.7227 7.12186 82.262 7.43599 81.6801C7.8951 80.88 8.30588 80.2254 8.66833 79.7404C9.03079 79.2555 9.51406 78.8676 10.1181 78.5766C10.7222 78.2857 11.4471 78.2372 12.317 78.3826C12.9936 78.5039 13.5735 78.7948 14.1051 79.2313Z" fill="#242F65"/>
<path d="M7.94267 60.1978L9.97241 60.9494L8.66758 64.4893L19.4204 68.5142L18.478 71.0843L7.7252 67.0594L6.42036 70.5751L4.39062 69.8235L7.94267 60.1978Z" fill="#242F65"/>
<path d="M27.2013 30.8115L35.7552 41.989L33.653 44.6076L24.35 40.3888L30.4634 48.6082L28.3612 51.2268L15.627 45.2865L17.4634 42.9831L27.008 47.9778L20.4597 39.2249L22.3203 36.8731L32.2757 41.3828L25.3407 33.1149L27.2013 30.8115Z" fill="#242F65"/>
<path d="M41.8683 19.6339C43.0523 19.4884 44.2122 19.6581 45.3237 20.143C46.4352 20.6279 47.4017 21.4038 48.2233 22.4707C49.0207 23.5375 49.5281 24.6771 49.6731 25.9136C49.8423 27.1259 49.6973 28.2897 49.214 29.3808C48.7549 30.4719 48.0058 31.4175 46.991 32.1934C45.9761 32.9692 44.8646 33.4299 43.6806 33.5754C42.4965 33.7209 41.3367 33.5511 40.2252 33.0662C39.1136 32.5813 38.1471 31.7812 37.3255 30.7143C36.5281 29.6475 36.0207 28.5079 35.8757 27.2956C35.7066 26.0833 35.8757 24.9195 36.3348 23.8284C36.8181 22.7374 37.543 21.7918 38.5579 21.0159C39.5728 20.2643 40.6843 19.8036 41.8683 19.6339ZM38.727 24.7498C38.4612 25.4044 38.3887 26.1076 38.5337 26.8592C38.6787 27.6108 39.017 28.3382 39.5486 29.0656C40.0802 29.793 40.7084 30.3022 41.385 30.6416C42.0616 30.9811 42.7623 31.1023 43.4631 31.0295C44.1638 30.9568 44.8404 30.6659 45.4687 30.1809C46.0969 29.696 46.556 29.1383 46.8218 28.4837C47.0876 27.8291 47.1601 27.1259 47.0151 26.3743C46.8701 25.6227 46.5319 24.8953 46.0003 24.1679C45.4687 23.4405 44.8404 22.9313 44.1638 22.5919C43.4873 22.2524 42.7865 22.1312 42.0858 22.2039C41.385 22.2767 40.7084 22.5676 40.0802 23.0526C39.4519 23.5375 38.9928 24.0951 38.727 24.7498Z" fill="#242F65"/>
<path d="M63.6157 22.1802L58.4447 18.7372L57.3573 19.2464L59.6528 24.0471L57.1882 25.2352L51.3164 12.9182L56.0041 10.6633C57.4298 9.98438 58.6863 9.81465 59.7737 10.1541C60.861 10.4935 61.6826 11.2452 62.2142 12.3847C62.6491 13.3303 62.7699 14.2275 62.5525 15.1003C62.335 15.9732 61.7792 16.7491 60.9093 17.4279L66.322 20.8951L63.6157 22.1802ZM56.5599 17.5734L58.5896 16.6036C59.9911 15.9247 60.4019 14.9791 59.7978 13.7183C59.5079 13.1121 59.1212 12.7484 58.6138 12.5787C58.1064 12.409 57.5023 12.506 56.7774 12.8454L54.7476 13.8153L56.5599 17.5734Z" fill="#242F65"/>
<path d="M74.6586 11.0027L82.0043 16.2641L78.8147 17.1127L72.3389 12.3362L73.9337 18.3978L71.2999 19.1009L67.8203 5.86251L70.4541 5.15937L72.0248 11.0997L75.3593 3.85008L78.5248 3.00146L74.6586 11.0027Z" fill="#242F65"/>
<path d="M96.6709 0.115418L98.87 5.09419L104.22 6.09356L100.18 9.74477L100.875 15.1381L96.1774 12.4266L91.262 14.7556L92.4027 9.43751L88.6663 5.47905L94.0637 4.90294L96.6709 0.115418Z" fill="#F3764F"/>
</svg>
