<svg width="235" height="235" viewBox="0 0 235 235" fill="none" xmlns="http://www.w3.org/2000/svg">
<circle cx="117.5" cy="117.5" r="117.5" fill="#E8EFF0"/>
<path d="M74.8872 120.975V108.285H80.4312C81.8232 108.285 82.8972 108.615 83.6532 109.275C84.4212 109.935 84.8052 110.853 84.8052 112.029C84.8052 112.809 84.6312 113.475 84.2832 114.027C83.9472 114.579 83.4612 115.005 82.8252 115.305C82.1892 115.593 81.4392 115.737 80.5752 115.737L80.8272 115.395H81.4392C81.9432 115.395 82.3932 115.527 82.7892 115.791C83.1852 116.055 83.5092 116.457 83.7612 116.997L85.6152 120.975H83.0592L81.1872 116.853C81.0192 116.433 80.7612 116.157 80.4132 116.025C80.0772 115.893 79.6692 115.827 79.1892 115.827H77.2092V120.975H74.8872ZM77.2092 114.117H80.0532C80.8692 114.117 81.4872 113.949 81.9072 113.613C82.3392 113.265 82.5552 112.761 82.5552 112.101C82.5552 111.441 82.3392 110.943 81.9072 110.607C81.4872 110.271 80.8692 110.103 80.0532 110.103H77.2092V114.117ZM91.5093 121.155C89.9853 121.155 88.7913 120.735 87.9273 119.895C87.0633 119.055 86.6313 117.903 86.6313 116.439C86.6313 115.491 86.8173 114.663 87.1893 113.955C87.5613 113.247 88.0773 112.695 88.7373 112.299C89.4093 111.903 90.1893 111.705 91.0773 111.705C91.9533 111.705 92.6853 111.891 93.2733 112.263C93.8613 112.635 94.3053 113.157 94.6053 113.829C94.9173 114.501 95.0733 115.287 95.0733 116.187V116.781H88.4493V115.593H93.4713L93.1653 115.845C93.1653 115.005 92.9853 114.363 92.6253 113.919C92.2773 113.475 91.7673 113.253 91.0953 113.253C90.3513 113.253 89.7753 113.517 89.3673 114.045C88.9713 114.573 88.7733 115.311 88.7733 116.259V116.493C88.7733 117.477 89.0133 118.215 89.4933 118.707C89.9853 119.187 90.6753 119.427 91.5633 119.427C92.0793 119.427 92.5593 119.361 93.0033 119.229C93.4593 119.085 93.8913 118.857 94.2993 118.545L94.9653 120.057C94.5333 120.405 94.0173 120.675 93.4173 120.867C92.8173 121.059 92.1813 121.155 91.5093 121.155ZM100.219 121.155C99.4387 121.155 98.7187 121.065 98.0587 120.885C97.4107 120.693 96.8647 120.429 96.4207 120.093L97.0507 118.581C97.5067 118.893 98.0107 119.133 98.5627 119.301C99.1147 119.469 99.6727 119.553 100.237 119.553C100.837 119.553 101.281 119.451 101.569 119.247C101.869 119.043 102.019 118.767 102.019 118.419C102.019 118.143 101.923 117.927 101.731 117.771C101.551 117.603 101.257 117.477 100.849 117.393L99.0487 117.051C98.2807 116.883 97.6927 116.595 97.2847 116.187C96.8887 115.779 96.6907 115.245 96.6907 114.585C96.6907 114.021 96.8407 113.523 97.1407 113.091C97.4527 112.659 97.8907 112.323 98.4547 112.083C99.0307 111.831 99.7027 111.705 100.471 111.705C101.143 111.705 101.773 111.795 102.361 111.975C102.961 112.155 103.465 112.425 103.873 112.785L103.225 114.243C102.853 113.943 102.427 113.709 101.947 113.541C101.467 113.373 100.999 113.289 100.543 113.289C99.9187 113.289 99.4627 113.403 99.1747 113.631C98.8867 113.847 98.7427 114.129 98.7427 114.477C98.7427 114.741 98.8267 114.963 98.9947 115.143C99.1747 115.311 99.4507 115.437 99.8227 115.521L101.623 115.863C102.427 116.019 103.033 116.295 103.441 116.691C103.861 117.075 104.071 117.603 104.071 118.275C104.071 118.875 103.909 119.391 103.585 119.823C103.261 120.255 102.811 120.585 102.235 120.813C101.659 121.041 100.987 121.155 100.219 121.155ZM109.272 121.155C108.156 121.155 107.322 120.849 106.77 120.237C106.218 119.625 105.942 118.689 105.942 117.429V111.885H108.192V117.411C108.192 118.083 108.33 118.581 108.606 118.905C108.882 119.217 109.302 119.373 109.866 119.373C110.502 119.373 111.018 119.157 111.414 118.725C111.822 118.293 112.026 117.723 112.026 117.015V111.885H114.276V120.975H112.08V119.121H112.332C112.068 119.769 111.666 120.273 111.126 120.633C110.598 120.981 109.98 121.155 109.272 121.155ZM116.719 120.975V114.153C116.719 113.781 116.707 113.403 116.683 113.019C116.659 112.635 116.623 112.257 116.575 111.885H118.753L118.933 113.685H118.717C118.969 113.061 119.353 112.575 119.869 112.227C120.397 111.879 121.021 111.705 121.741 111.705C122.461 111.705 123.055 111.879 123.523 112.227C124.003 112.563 124.339 113.091 124.531 113.811H124.243C124.495 113.163 124.909 112.653 125.485 112.281C126.061 111.897 126.721 111.705 127.465 111.705C128.485 111.705 129.247 112.005 129.751 112.605C130.255 113.205 130.507 114.141 130.507 115.413V120.975H128.257V115.503C128.257 114.783 128.137 114.267 127.897 113.955C127.657 113.631 127.273 113.469 126.745 113.469C126.121 113.469 125.629 113.691 125.269 114.135C124.909 114.567 124.729 115.155 124.729 115.899V120.975H122.479V115.503C122.479 114.783 122.359 114.267 122.119 113.955C121.879 113.631 121.495 113.469 120.967 113.469C120.343 113.469 119.851 113.691 119.491 114.135C119.143 114.567 118.969 115.155 118.969 115.899V120.975H116.719ZM137.3 121.155C135.776 121.155 134.582 120.735 133.718 119.895C132.854 119.055 132.422 117.903 132.422 116.439C132.422 115.491 132.608 114.663 132.98 113.955C133.352 113.247 133.868 112.695 134.528 112.299C135.2 111.903 135.98 111.705 136.868 111.705C137.744 111.705 138.476 111.891 139.064 112.263C139.652 112.635 140.096 113.157 140.396 113.829C140.708 114.501 140.864 115.287 140.864 116.187V116.781H134.24V115.593H139.262L138.956 115.845C138.956 115.005 138.776 114.363 138.416 113.919C138.068 113.475 137.558 113.253 136.886 113.253C136.142 113.253 135.566 113.517 135.158 114.045C134.762 114.573 134.564 115.311 134.564 116.259V116.493C134.564 117.477 134.804 118.215 135.284 118.707C135.776 119.187 136.466 119.427 137.354 119.427C137.87 119.427 138.35 119.361 138.794 119.229C139.25 119.085 139.682 118.857 140.09 118.545L140.756 120.057C140.324 120.405 139.808 120.675 139.208 120.867C138.608 121.059 137.972 121.155 137.3 121.155Z" fill="#242F65"/>
<path d="M162.235 119.467L162.346 109.709L152.592 109.997M161.248 110.828L151.836 120.412" stroke="#FF774C" stroke-width="1.5" stroke-linecap="round" stroke-linejoin="round"/>
<path d="M141.365 22.6972L138.231 36.9443L135.405 36.2979L138.565 22.0508L141.365 22.6972Z" fill="#242F65"/>
<path d="M164.279 45.4516C163.663 45.8394 162.943 46.0204 162.121 46.0204C161.299 46.0204 160.426 45.7619 159.527 45.2706C158.628 44.7793 157.883 44.1846 157.343 43.5123C156.804 42.8142 156.47 42.0643 156.341 41.2628C156.213 40.4354 156.341 39.6338 156.675 38.8322L159.398 40.2802C159.193 40.8232 159.167 41.3921 159.347 41.9092C159.527 42.4522 159.912 42.8659 160.503 43.202C161.042 43.4865 161.531 43.564 161.967 43.4347C162.404 43.3055 162.738 42.9952 162.969 42.5556C163.175 42.1678 163.252 41.754 163.149 41.3662C163.046 40.9783 162.866 40.6163 162.609 40.2802C162.353 39.9441 161.967 39.4786 161.453 38.9615C160.811 38.2634 160.297 37.6428 159.912 37.1257C159.527 36.6085 159.296 35.988 159.219 35.2898C159.141 34.5917 159.296 33.8419 159.707 33.0403C160.297 31.9285 161.145 31.2562 162.276 31.0493C163.406 30.8425 164.639 31.0752 165.923 31.7733C167.285 32.4973 168.184 33.4023 168.646 34.4883C169.109 35.5743 169.109 36.6861 168.621 37.8497L165.872 36.3758C166.052 35.8846 166.052 35.3933 165.898 34.9279C165.743 34.4624 165.384 34.0746 164.844 33.7902C164.382 33.5316 163.92 33.454 163.509 33.5574C163.098 33.6609 162.738 33.9453 162.507 34.4107C162.301 34.7986 162.25 35.1606 162.353 35.5226C162.455 35.8846 162.609 36.2465 162.892 36.5827C163.149 36.9188 163.534 37.3584 164.022 37.8755C164.69 38.5995 165.204 39.2459 165.589 39.7631C165.975 40.2802 166.206 40.9008 166.309 41.6248C166.411 42.3229 166.232 43.0986 165.795 43.926C165.384 44.5466 164.896 45.0637 164.279 45.4516Z" fill="#242F65"/>
<path d="M188.452 47.9855L179.153 59.1815L176.918 57.294L180.977 52.4329L176.225 48.4251L172.166 53.2862L169.931 51.4245L179.23 40.2285L181.465 42.0902L177.689 46.6151L182.441 50.6229L186.217 46.098L188.452 47.9855Z" fill="#242F65"/>
<path d="M201.811 64.8435C201.965 66.1104 201.785 67.3516 201.271 68.541C200.757 69.7304 199.91 70.7647 198.779 71.6179C197.649 72.4712 196.416 73.0142 195.131 73.1694C193.847 73.3504 192.614 73.1694 191.432 72.6781C190.276 72.1609 189.274 71.3852 188.452 70.2734C187.63 69.1874 187.142 67.998 186.988 66.731C186.834 65.464 187.014 64.2229 187.528 63.0335C188.041 61.8441 188.889 60.8098 190.019 59.9307C191.15 59.0774 192.383 58.5602 193.667 58.3793C194.952 58.1983 196.185 58.3793 197.341 58.8705C198.497 59.3618 199.499 60.1634 200.321 61.2752C201.168 62.3871 201.656 63.5765 201.811 64.8435ZM196.416 61.4562C195.722 61.1718 194.977 61.0942 194.181 61.2494C193.385 61.3786 192.614 61.7665 191.843 62.3353C191.073 62.9042 190.507 63.5765 190.148 64.3005C189.788 65.0245 189.66 65.7743 189.737 66.5242C189.814 67.274 190.122 67.998 190.636 68.6703C191.15 69.3425 191.741 69.8338 192.434 70.1183C193.128 70.4027 193.873 70.4802 194.669 70.3251C195.465 70.1958 196.236 69.808 197.007 69.2391C197.777 68.6703 198.343 67.998 198.702 67.274C199.062 66.55 199.19 65.8002 199.113 65.0503C199.036 64.3005 198.728 63.5765 198.214 62.9042C197.726 62.2319 197.109 61.7406 196.416 61.4562Z" fill="#242F65"/>
<path d="M210.879 78.987L203.121 82.4777C202.093 82.9431 201.399 83.5378 201.091 84.2101C200.783 84.9082 200.809 85.6839 201.194 86.5631C201.579 87.4163 202.119 87.9593 202.838 88.192C203.557 88.4247 204.456 88.2955 205.484 87.83L213.242 84.3394L214.424 86.9768L206.666 90.4674C205.433 91.0104 204.302 91.2431 203.249 91.1656C202.196 91.088 201.297 90.726 200.526 90.1054C199.755 89.4849 199.139 88.6575 198.676 87.6232C197.957 86.0201 197.88 84.5204 198.394 83.1499C198.933 81.7537 200.089 80.6677 201.939 79.8403L209.697 76.3496L210.879 78.987Z" fill="#242F65"/>
<path d="M206.255 102.699L207.385 107.483L205.227 108L203.455 100.398L217.583 97.0625L218.251 99.9067L206.255 102.699Z" fill="#242F65"/>
<path d="M210.185 126.564C209.08 125.995 208.181 125.142 207.539 124.03C206.897 122.918 206.537 121.547 206.486 119.97L206.306 114.773L220.794 114.256L220.974 119.453C221.026 121.03 220.769 122.427 220.229 123.59C219.664 124.754 218.868 125.659 217.789 126.305C216.71 126.952 215.477 127.288 214.013 127.339C212.6 127.391 211.315 127.133 210.185 126.564ZM210.416 123.228C211.264 124.056 212.446 124.443 213.91 124.392C215.4 124.34 216.556 123.875 217.327 122.97C218.123 122.09 218.483 120.849 218.431 119.272L218.354 117.255L208.978 117.591L209.055 119.608C209.132 121.185 209.568 122.401 210.416 123.228Z" fill="#242F65"/>
<path d="M205.638 148.181L204.354 152.912L202.222 152.318L204.277 144.768L218.277 148.646L217.506 151.464L205.638 148.181Z" fill="#242F65"/>
<path d="M207.513 174.477C206.46 175.175 205.279 175.563 203.968 175.614C202.684 175.666 201.4 175.382 200.115 174.735C198.831 174.089 197.854 173.21 197.11 172.124C196.39 171.038 195.979 169.848 195.928 168.581C195.851 167.314 196.133 166.047 196.75 164.832C197.366 163.617 198.214 162.66 199.267 161.962C200.321 161.264 201.502 160.876 202.812 160.824C204.123 160.773 205.407 161.057 206.666 161.703C207.924 162.35 208.926 163.229 209.646 164.315C210.365 165.401 210.75 166.59 210.827 167.857C210.879 169.124 210.622 170.391 210.005 171.607C209.414 172.822 208.592 173.779 207.513 174.477ZM208.156 168.116C208.104 167.366 207.847 166.668 207.359 165.996C206.871 165.349 206.203 164.806 205.356 164.367C204.508 163.927 203.66 163.72 202.864 163.72C202.067 163.72 201.348 163.927 200.706 164.315C200.064 164.729 199.55 165.298 199.165 166.073C198.779 166.823 198.625 167.599 198.677 168.349C198.728 169.098 198.985 169.797 199.473 170.469C199.961 171.115 200.629 171.658 201.477 172.098C202.324 172.537 203.172 172.744 203.968 172.744C204.765 172.744 205.484 172.537 206.126 172.15C206.768 171.736 207.257 171.167 207.642 170.391C208.027 169.616 208.207 168.866 208.156 168.116Z" fill="#242F65"/>
<path d="M199.293 188.388L187.99 183.941L194.258 194.387L192.254 196.766L184.445 183.398L186.834 180.528L201.245 185.983L199.293 188.388Z" fill="#242F65"/>
<path d="M181.542 203.255L179.204 200.307L175.197 203.539L173.81 201.781L177.817 198.549L175.377 195.472L170.881 199.092L169.443 197.256L176.199 191.826L185.241 203.255L178.485 208.685L177.047 206.875L181.542 203.255Z" fill="#242F65"/>
<path d="M150.818 223.191L149.971 221.045L153.695 219.545L149.149 208.143L151.846 207.057L156.393 218.46L160.092 216.96L160.94 219.106L150.818 223.191Z" fill="#242F65"/>
<path d="M130.961 227.043C129.779 226.603 128.777 225.879 127.955 224.871C127.133 223.863 126.62 222.647 126.363 221.225C126.131 219.803 126.234 218.484 126.671 217.243C127.108 216.002 127.827 214.994 128.803 214.166C129.779 213.365 130.935 212.822 132.271 212.615C133.607 212.382 134.866 212.486 136.073 212.925C137.255 213.365 138.282 214.089 139.079 215.123C139.901 216.131 140.414 217.373 140.671 218.769C140.902 220.191 140.8 221.51 140.363 222.725C139.926 223.966 139.207 224.975 138.231 225.776C137.255 226.578 136.099 227.095 134.763 227.327C133.427 227.56 132.168 227.483 130.961 227.043ZM136.433 223.759C136.998 223.268 137.409 222.647 137.64 221.872C137.871 221.096 137.923 220.243 137.743 219.286C137.589 218.329 137.255 217.528 136.792 216.881C136.304 216.235 135.713 215.769 135.02 215.485C134.326 215.201 133.555 215.149 132.708 215.304C131.86 215.459 131.166 215.769 130.601 216.261C130.036 216.752 129.625 217.373 129.394 218.148C129.163 218.924 129.111 219.777 129.291 220.734C129.445 221.691 129.779 222.492 130.242 223.139C130.73 223.785 131.321 224.251 132.014 224.535C132.708 224.794 133.478 224.871 134.326 224.716C135.174 224.561 135.867 224.251 136.433 223.759Z" fill="#242F65"/>
<path d="M104.733 215.357L99.9032 214.633L100.211 212.436L107.892 213.573L105.786 228.027L102.909 227.613L104.733 215.357Z" fill="#242F65"/>
<path d="M86.9561 221.589L88.1121 217.994L83.2312 216.391L83.9248 214.271L88.8057 215.874L90.013 212.125L84.5413 210.341L85.2606 208.117L93.481 210.832L88.9855 224.717L80.7651 222.028L81.4844 219.83L86.9561 221.589Z" fill="#242F65"/>
<path d="M69.4364 203.463L74.497 206.359L76.8347 204.316L79.5063 205.842L67.7923 215.745L64.9151 214.116L67.3556 198.912L70.0272 200.438L69.4364 203.463ZM69.0253 205.79L67.8693 212.203L72.7502 207.884L69.0253 205.79Z" fill="#242F65"/>
<path d="M56.4378 189.81L55.2304 196.326L56.1809 197.179L59.9315 192.913L62.115 194.852L52.5074 205.79L48.3716 202.092C47.1128 200.954 46.4192 199.791 46.2908 198.601C46.188 197.386 46.5733 196.274 47.4468 195.266C48.166 194.439 49.0138 193.947 49.9643 193.792C50.9147 193.637 51.8909 193.844 52.9185 194.439L54.0488 187.664L56.4378 189.81ZM54.8451 198.705L53.0726 197.102C51.8395 195.99 50.7349 195.99 49.7587 197.102C49.2963 197.619 49.0908 198.188 49.1165 198.731C49.1679 199.3 49.5019 199.868 50.1441 200.437L51.9423 202.04L54.8451 198.705Z" fill="#242F65"/>
<path d="M41.9751 172.512L43.6962 174.865L39.6117 186.009L47.5495 180.114L49.2707 182.467L37.5823 191.129L35.8611 188.776L40.0227 177.58L32.0078 183.527L30.2867 181.174L41.9751 172.512Z" fill="#242F65"/>
<path d="M28.5912 149.112L30.3381 154.697L33.4207 154.8L34.3455 157.748L19.0607 156.946L18.0588 153.766L30.1582 144.328L31.083 147.276L28.5912 149.112ZM26.7416 150.534L21.5268 154.438L28.0004 154.645L26.7416 150.534Z" fill="#242F65"/>
<path d="M21.8865 128.116C22.4773 127.521 23.2223 127.185 24.0957 127.107C25.3031 127.004 26.3049 127.314 27.0756 128.064C27.8463 128.814 28.3087 129.977 28.4628 131.529L29.0279 137.76L14.5909 139.105L14.0257 132.977C13.8973 131.503 14.1028 130.339 14.6679 129.512C15.2331 128.659 16.1065 128.193 17.2625 128.064C18.1616 127.987 18.9323 128.142 19.5488 128.581C20.1653 128.995 20.602 129.59 20.8332 130.339C20.936 129.46 21.2956 128.711 21.8865 128.116ZM20.3965 135.64L20.1653 133.029C20.0882 132.305 19.8827 131.762 19.5231 131.425C19.1635 131.089 18.7011 130.934 18.0845 130.986C17.4937 131.038 17.0313 131.27 16.7487 131.658C16.4661 132.072 16.3377 132.641 16.4148 133.416L16.646 136.002L20.3965 135.64ZM25.5086 130.598C25.1232 130.21 24.6352 130.055 23.9929 130.107C23.3507 130.158 22.8626 130.417 22.5544 130.882C22.2461 131.348 22.1177 131.943 22.1947 132.718L22.4516 135.459L26.4334 135.097L26.1765 132.33C26.0994 131.555 25.8682 130.986 25.5086 130.598Z" fill="#242F65"/>
<path d="M15.7469 107.328C16.5175 106.319 17.4937 105.543 18.7011 105.052C19.9084 104.561 21.2186 104.406 22.6314 104.587C24.0443 104.768 25.2774 105.259 26.3306 106.035C27.3839 106.81 28.1545 107.793 28.6169 108.982C29.105 110.172 29.2591 111.439 29.0793 112.783C28.8995 114.128 28.4371 115.317 27.6664 116.352C26.8958 117.36 25.9196 118.136 24.7122 118.627C23.5049 119.118 22.1947 119.273 20.7819 119.092C19.369 118.911 18.1359 118.42 17.1084 117.644C16.0551 116.869 15.3102 115.886 14.8221 114.697C14.334 113.507 14.1798 112.24 14.3597 110.896C14.5138 109.525 14.9762 108.336 15.7469 107.328ZM17.2882 113.533C17.5965 114.231 18.0588 114.8 18.7268 115.266C19.3947 115.731 20.2167 116.015 21.1415 116.145C22.092 116.274 22.9397 116.196 23.7104 115.938C24.481 115.679 25.0719 115.24 25.5343 114.645C25.9967 114.05 26.2793 113.326 26.382 112.473C26.4848 111.62 26.4077 110.844 26.0994 110.172C25.7912 109.474 25.3288 108.905 24.6609 108.439C23.993 107.974 23.1966 107.69 22.2204 107.56C21.2699 107.431 20.4222 107.509 19.6516 107.767C18.8809 108.026 18.29 108.465 17.8277 109.06C17.3653 109.655 17.0827 110.379 16.9799 111.232C16.8772 112.085 16.9799 112.861 17.2882 113.533Z" fill="#242F65"/>
<path d="M19.0864 90.8553L27.0756 93.803C28.1545 94.1908 29.0279 94.2684 29.7472 93.984C30.4665 93.6995 30.9803 93.1307 31.2886 92.2257C31.5968 91.3466 31.5968 90.5709 31.2372 89.8986C30.8775 89.2263 30.1582 88.7092 29.105 88.2955L21.1158 85.3478L22.1177 82.6328L30.1069 85.5805C31.3656 86.0459 32.3418 86.6665 33.0354 87.468C33.729 88.2696 34.14 89.1487 34.2684 90.1571C34.3969 91.1397 34.2428 92.174 33.8574 93.2341C33.2666 94.8889 32.2904 96.0008 30.9546 96.6214C29.6188 97.2419 28.0004 97.2161 26.1251 96.4921L18.0845 93.5702L19.0864 90.8553Z" fill="#242F65"/>
<path d="M32.0335 64.6895L33.9859 65.9047L31.8794 69.3437L42.2576 75.8079L40.742 78.2901L30.3638 71.8259L28.2573 75.239L26.3049 74.0238L32.0335 64.6895Z" fill="#242F65"/>
<path d="M54.6139 40.9258L57.0287 51.3461L60.3425 55.2246L58.1333 57.138L54.8194 53.2595L44.9293 49.3034L47.4468 47.1056L53.9203 49.924L52.1221 43.046L54.6139 40.9258Z" fill="#242F65"/>
<path d="M72.3392 30.9722C73.6236 31.0239 74.7796 31.3859 75.8842 32.084C76.9888 32.7822 77.8622 33.7647 78.5302 35.0317C79.1981 36.2987 79.5063 37.5915 79.5063 38.9102C79.4806 40.2289 79.121 41.4183 78.4531 42.5043C77.7852 43.5903 76.8347 44.4436 75.653 45.09C74.4456 45.7364 73.2126 46.0209 71.9538 45.995C70.6951 45.9691 69.5134 45.5813 68.4088 44.8832C67.3042 44.185 66.4308 43.1766 65.7628 41.9096C65.0949 40.6426 64.7867 39.3498 64.8124 38.057C64.8381 36.7641 65.1977 35.5489 65.8656 34.4887C66.5335 33.4286 67.484 32.5495 68.6657 31.903C69.8217 31.2566 71.0547 30.9463 72.3392 30.9722ZM68.1776 35.8333C67.7923 36.4797 67.6124 37.2037 67.6124 38.0052C67.6381 38.8068 67.8693 39.6601 68.306 40.5134C68.7427 41.3666 69.3079 42.0131 69.9758 42.4785C70.6437 42.9439 71.3373 43.2025 72.0823 43.2283C72.8273 43.2542 73.5722 43.0732 74.3429 42.6853C75.1135 42.2975 75.653 41.7545 76.064 41.1081C76.4494 40.4616 76.6292 39.7377 76.6292 38.9361C76.6035 38.1345 76.3723 37.2813 75.9356 36.4538C75.4732 35.6006 74.9337 34.9541 74.2658 34.4629C73.5979 33.9716 72.9043 33.7389 72.1593 33.713C71.4144 33.6872 70.6694 33.8682 69.9244 34.256C69.1281 34.6697 68.5629 35.1869 68.1776 35.8333Z" fill="#242F65"/>
<path d="M87.5983 24.1973L89.8075 32.4715C90.1158 33.5833 90.5782 34.3331 91.1947 34.7727C91.8369 35.1864 92.6076 35.2898 93.5067 35.0313C94.4058 34.7986 95.0223 34.3331 95.3563 33.635C95.6902 32.9627 95.7159 32.0577 95.4077 30.9459L93.1727 22.6717L95.9471 21.9219L98.1564 30.1961C98.516 31.4889 98.5674 32.6783 98.3105 33.6867C98.0793 34.721 97.5912 35.5743 96.8462 36.2465C96.1013 36.9188 95.2022 37.4101 94.1232 37.6945C92.4535 38.16 90.9635 38.0048 89.6791 37.2808C88.3946 36.531 87.4955 35.1864 86.9818 33.2472L84.7725 24.973L87.5983 24.1973Z" fill="#242F65"/>
<path d="M117.526 16L119.966 21.2748L125.669 22.2573L121.43 26.2134L122.252 31.9537L117.217 29.1353L112.028 31.6951L113.159 26.0066L109.125 21.8436L114.854 21.1455L117.526 16Z" fill="#F3764F"/>
</svg>
