<svg width="203" height="203" viewBox="0 0 203 203" fill="none" xmlns="http://www.w3.org/2000/svg">
<path d="M111.094 86.2791L100.094 74.9971L89.0944 86.2791M100.094 76.564L100.094 124.997" stroke="white" stroke-width="1.5" stroke-linecap="round" stroke-linejoin="round"/>
<path d="M125.982 7.78294L125.559 9.88222L121.911 9.13976L119.645 20.2241L116.992 19.6777L119.258 8.59331L115.634 7.85212L116.057 5.75285L125.982 7.78294Z" fill="white"/>
<path d="M144.231 14.4999L138.998 26.9045L136.491 25.8651L138.765 20.479L133.448 18.2412L131.151 23.6023L128.668 22.5642L133.902 10.1597L136.385 11.1977L134.274 16.2111L139.591 18.4489L141.702 13.4356L144.231 14.4999Z" fill="white"/>
<path d="M153.063 32.5882L148.63 29.4915L146.291 31.155L143.959 29.529L155.712 21.5004L158.229 23.2555L154.602 36.9614L152.27 35.3353L153.063 32.5882ZM153.653 30.4978L155.302 24.7208L150.398 28.2267L153.653 30.4978Z" fill="white"/>
<path d="M166.507 49.0613L164.672 47.0803L167.32 36.4693L160.573 42.6663L158.739 40.6853L168.658 31.5817L170.492 33.5627L167.793 44.2425L174.59 38.0005L176.425 39.9815L166.507 49.0613Z" fill="white"/>
<path d="M178.983 55.3517L176.022 63.7528L174.351 60.9461L177.092 53.5346L171.776 56.6847L170.391 54.37L181.987 47.5012L183.373 49.8159L178.156 52.8998L185.923 54.0998L187.594 56.8827L178.983 55.3517Z" fill="white"/>
<path d="M182.934 76.5172C182.27 76.3865 181.664 76.0682 181.093 75.5609C180.521 75.0537 180.08 74.3389 179.77 73.4165C179.435 72.5165 179.312 71.6756 179.356 70.8435C179.401 70.0115 179.653 69.3097 180.07 68.6882C180.486 68.0666 181.087 67.5741 181.823 67.2319L182.805 69.9304C182.314 70.1665 181.959 70.5291 181.742 71.0181C181.524 71.5072 181.52 72.0315 181.728 72.6147C181.916 73.1492 182.208 73.4985 182.581 73.6853C182.955 73.872 183.386 73.8711 183.824 73.7276C184.215 73.5815 184.515 73.359 184.676 73.0338C184.86 72.7099 184.951 72.3571 184.996 71.9542C185.018 71.5501 185.047 71.0033 185.011 70.3338C184.986 69.4504 185.025 68.7135 185.105 68.1217C185.184 67.5299 185.405 66.9695 185.769 66.4405C186.132 65.9115 186.704 65.5129 187.51 65.222C188.608 64.8275 189.609 64.9284 190.514 65.4772C191.418 66.0259 192.11 66.9687 192.593 68.2579C193.072 69.5946 193.13 70.7659 192.787 71.7966C192.445 72.8274 191.735 73.5763 190.679 74.0685L189.698 71.3462C190.118 71.1063 190.446 70.79 190.612 70.3697C190.802 69.9507 190.78 69.4727 190.593 68.9382C190.426 68.4764 190.157 68.1283 189.808 67.9428C189.46 67.7336 189.052 67.7357 188.589 67.9018C188.223 68.0254 187.947 68.2491 187.786 68.5743C187.627 68.8757 187.512 69.2273 187.491 69.6314C187.469 70.0355 187.441 70.5585 187.479 71.2042C187.479 72.1101 187.462 72.8721 187.381 73.4877C187.326 74.0807 187.103 74.6649 186.716 75.1926C186.352 75.7216 185.755 76.1428 184.926 76.4324C184.247 76.587 183.597 76.6478 182.934 76.5172Z" fill="white"/>
<path d="M198.249 99.6708L196.111 99.7954L195.788 94.152L192.185 94.3655L192.447 98.8853L190.381 99.0137L190.119 94.494L184.449 94.836L184.281 92.1569L197.756 91.372L198.249 99.6708Z" fill="white"/>
<path d="M195.932 118C195.189 118.914 194.268 119.58 193.12 119.996C191.973 120.411 190.77 120.514 189.463 120.325C188.157 120.113 187.032 119.648 186.066 118.905C185.1 118.162 184.432 117.221 184.011 116.126C183.59 115.03 183.485 113.857 183.672 112.603C183.881 111.374 184.346 110.279 185.089 109.365C185.832 108.451 186.778 107.786 187.901 107.369C189.049 106.953 190.252 106.85 191.581 107.064C192.887 107.276 194.012 107.741 194.978 108.484C195.92 109.226 196.614 110.145 197.033 111.264C197.454 112.359 197.559 113.533 197.373 114.786C197.186 116.04 196.652 117.084 195.932 118ZM194.657 112.258C194.404 111.624 193.954 111.076 193.355 110.639C192.755 110.202 192.004 109.923 191.125 109.781C190.247 109.639 189.454 109.692 188.724 109.916C188.017 110.14 187.423 110.514 186.986 111.063C186.551 111.588 186.252 112.263 186.14 113.02C186.028 113.777 186.085 114.496 186.338 115.153C186.59 115.81 187.041 116.334 187.64 116.772C188.24 117.209 188.991 117.487 189.87 117.629C190.748 117.771 191.541 117.718 192.272 117.495C192.978 117.27 193.574 116.873 194.009 116.348C194.444 115.822 194.743 115.147 194.855 114.39C194.993 113.611 194.935 112.892 194.657 112.258Z" fill="white"/>
<path d="M178.674 131.814L184.697 130.681L185.115 129.582L180.182 127.77L181.107 125.245L193.767 129.9L191.978 134.716C191.42 136.188 190.65 137.172 189.665 137.668C188.657 138.163 187.578 138.201 186.403 137.78C185.44 137.419 184.752 136.858 184.289 136.095C183.827 135.331 183.685 134.394 183.838 133.329L177.615 134.619L178.674 131.814ZM186.853 130.223L186.095 132.305C185.563 133.754 185.944 134.704 187.212 135.177C187.822 135.4 188.373 135.406 188.841 135.169C189.308 134.931 189.693 134.451 189.947 133.725L190.704 131.644L186.853 130.223Z" fill="white"/>
<path d="M166.623 155.324C166.37 154.69 166.309 154.02 166.445 153.264C166.581 152.508 166.932 151.764 167.525 150.985C168.092 150.229 168.745 149.644 169.461 149.252C170.176 148.861 170.905 148.662 171.672 148.655C172.437 148.672 173.143 148.9 173.839 149.319L172.114 151.587C171.627 151.299 171.153 151.202 170.621 151.293C170.113 151.385 169.667 151.671 169.282 152.151C168.948 152.587 168.805 153.032 168.855 153.44C168.905 153.848 169.125 154.217 169.517 154.5C169.838 154.756 170.191 154.87 170.576 154.843C170.937 154.814 171.301 154.714 171.647 154.518C171.993 154.322 172.463 154.037 173.034 153.662C173.755 153.152 174.397 152.781 174.938 152.524C175.479 152.267 176.083 152.156 176.729 152.166C177.375 152.177 178.031 152.45 178.698 152.962C179.619 153.655 180.099 154.539 180.138 155.614C180.176 156.689 179.76 157.763 178.936 158.84C178.086 159.963 177.115 160.674 176.047 160.927C174.98 161.18 173.96 161.007 172.986 160.407L174.738 158.092C175.18 158.33 175.607 158.4 176.066 158.329C176.525 158.259 176.922 157.994 177.258 157.535C177.566 157.146 177.707 156.748 177.68 156.341C177.654 155.935 177.457 155.59 177.042 155.282C176.719 155.05 176.39 154.938 176.053 154.967C175.692 154.996 175.352 155.097 175.006 155.293C174.66 155.489 174.215 155.752 173.669 156.128C172.899 156.635 172.257 157.006 171.715 157.287C171.175 157.545 170.569 157.679 169.923 157.669C169.277 157.658 168.597 157.384 167.906 156.87C167.28 156.479 166.877 155.957 166.623 155.324Z" fill="white"/>
<path d="M161.184 175.18C159.792 175.249 158.448 174.843 157.202 173.966L159.335 172.125C160.035 172.472 160.771 172.607 161.493 172.526C162.24 172.447 162.929 172.102 163.581 171.54C164.109 171.068 164.498 170.516 164.675 169.882C164.853 169.248 164.865 168.557 164.687 167.856C164.485 167.154 164.091 166.466 163.504 165.791C162.916 165.14 162.295 164.654 161.617 164.355C160.938 164.057 160.272 163.974 159.596 164.081C158.92 164.188 158.33 164.467 157.778 164.938C157.126 165.499 156.708 166.144 156.526 166.874C156.343 167.603 156.377 168.32 156.624 169.072L154.49 170.937C153.771 169.588 153.557 168.218 153.821 166.849C154.086 165.48 154.846 164.234 156.126 163.133C157.105 162.28 158.139 161.762 159.275 161.561C160.411 161.359 161.507 161.465 162.61 161.881C163.713 162.321 164.705 163.018 165.562 164.017C166.443 165.017 167.032 166.098 167.307 167.233C167.581 168.368 167.546 169.487 167.177 170.564C166.809 171.641 166.159 172.607 165.179 173.461C163.926 174.515 162.577 175.111 161.184 175.18Z" fill="white"/>
<path d="M140.068 174.199L145.389 177.248L146.426 176.659L143.844 172.088L146.188 170.782L152.796 182.505L148.305 185.008C146.947 185.77 145.713 186.014 144.625 185.766C143.536 185.517 142.687 184.828 142.074 183.747C141.57 182.862 141.402 181.97 141.569 181.097C141.735 180.224 142.209 179.415 143.037 178.696L137.452 175.657L140.068 174.199ZM147.346 178.282L145.42 179.371C144.088 180.111 143.724 181.093 144.404 182.273C144.733 182.839 145.145 183.195 145.641 183.317C146.138 183.438 146.742 183.327 147.433 182.935L149.383 181.847L147.346 178.282Z" fill="white"/>
<path d="M126.562 193.101C125.402 192.848 124.402 192.295 123.511 191.484C122.62 190.674 122.006 189.616 121.618 188.356C121.23 187.096 121.151 185.875 121.406 184.697C121.66 183.519 122.193 182.498 123.005 181.635C123.818 180.773 124.832 180.159 126.025 179.793C127.242 179.429 128.418 179.372 129.578 179.625C130.738 179.877 131.738 180.431 132.628 181.265C133.517 182.099 134.133 183.133 134.543 184.419C134.954 185.704 135.01 186.899 134.756 188.077C134.501 189.256 133.968 190.277 133.156 191.139C132.344 192.002 131.353 192.617 130.136 192.981C128.897 193.321 127.721 193.377 126.562 193.101ZM131.21 189.462C131.669 188.938 131.965 188.31 132.1 187.579C132.235 186.847 132.157 186.056 131.891 185.207C131.625 184.359 131.231 183.67 130.709 183.118C130.186 182.589 129.583 182.224 128.921 182.069C128.235 181.913 127.539 181.948 126.784 182.17C126.03 182.392 125.412 182.765 124.953 183.288C124.494 183.812 124.197 184.44 124.062 185.172C123.928 185.904 124.005 186.695 124.271 187.543C124.538 188.392 124.932 189.081 125.453 189.633C125.976 190.161 126.579 190.527 127.265 190.683C127.952 190.839 128.648 190.804 129.426 190.583C130.134 190.335 130.728 189.961 131.21 189.462Z" fill="white"/>
<path d="M110.99 185.121L106.488 185.573L106.285 183.535L113.485 182.798L114.88 196.175L112.207 196.462L110.99 185.121Z" fill="white"/>
<path d="M97.5359 185.501L92.9989 185.259L93.1077 183.215L100.318 183.622L99.5792 197.053L96.8809 196.909L97.5359 185.501Z" fill="white"/>
<path d="M82.0639 195L84.6097 181.809L87.2651 182.308L84.7181 195.523L82.0639 195Z" fill="white"/>
<path d="M67.2751 176.357L69.811 177.303L72.2845 187.972L75.471 179.392L78.0069 180.337L73.3134 192.937L70.7762 192.016L68.3304 181.277L65.1163 189.926L62.5803 188.981L67.2751 176.357Z" fill="white"/>
<path d="M45.915 178.152C45.4554 176.888 45.476 175.602 45.9766 174.293L48.3377 175.826C48.2306 176.487 48.3171 177.112 48.5946 177.746C48.8735 178.357 49.3483 178.883 50.0193 179.324C50.6677 179.74 51.3501 179.967 52.0426 180.004C52.7351 180.041 53.4151 179.862 54.0574 179.491C54.6998 179.12 55.2567 178.554 55.7509 177.817C56.5318 176.643 56.8074 175.513 56.6017 174.43C56.3959 173.346 55.749 172.453 54.637 171.75C53.8265 171.23 52.9757 171.018 52.0846 171.114C51.1935 171.209 50.3802 171.643 49.6472 172.367L53.4658 174.859L52.3982 176.471L46.681 172.757L48.1132 170.593C48.7695 169.96 49.5137 169.475 50.3936 169.14C51.2735 168.806 52.2123 168.713 53.2127 168.814C54.2131 168.915 55.1983 169.301 56.1709 169.925C57.2817 170.651 58.097 171.529 58.6409 172.559C59.1847 173.59 59.3892 174.697 59.2795 175.859C59.1697 177.022 58.7495 178.168 58.0202 179.273C57.2896 180.402 56.4071 181.237 55.3712 181.802C54.3354 182.367 53.2444 182.619 52.0744 182.557C50.9043 182.494 49.7758 182.1 48.665 181.374C47.2992 180.491 46.3745 179.416 45.915 178.152Z" fill="white"/>
<path d="M33.7304 169.971L40.5509 163.301L42.2156 164.867L35.8964 172.017L33.7304 169.971ZM41.4902 161.849L43.4189 159.806L45.5158 161.801L43.5884 163.82L41.4902 161.849Z" fill="white"/>
<path d="M22.1696 153.669C22.1927 152.335 22.6644 151.12 23.5823 150.073L25.2568 152.355C24.9147 152.933 24.7851 153.57 24.8213 154.239C24.8814 154.91 25.1338 155.567 25.6023 156.212C26.0722 156.833 26.6225 157.291 27.2546 157.563C27.8867 157.835 28.5766 157.92 29.3019 157.791C30.0271 157.663 30.7624 157.345 31.4853 156.811C32.6318 155.966 33.2806 155.023 33.4821 153.937C33.6597 152.85 33.3798 151.81 32.5984 150.743C32.0168 149.973 31.3018 149.458 30.4271 149.245C29.5525 149.031 28.6375 149.126 27.7035 149.577L30.4056 153.249L28.8368 154.381L24.7942 148.897L26.8873 147.364C27.7207 147.003 28.593 146.811 29.5507 146.814C30.4845 146.816 31.4057 147.056 32.2916 147.508C33.1775 147.961 33.9778 148.671 34.6713 149.59C35.4526 150.657 35.9211 151.754 36.0501 152.929C36.1804 154.081 36.0016 155.192 35.4897 156.261C34.9778 157.33 34.1869 158.242 33.1159 159.019C32.0448 159.797 30.9173 160.285 29.7345 160.461C28.577 160.614 27.4584 160.483 26.3815 160.02C25.3046 159.557 24.3874 158.793 23.606 157.727C22.6501 156.341 22.1691 155.028 22.1696 153.669Z" fill="white"/>
<path d="M16.4541 141.372L19.6218 139.896L17.6011 135.569L19.4678 134.691L21.4885 139.018L24.7781 137.5L22.5213 132.66L24.4847 131.763L27.8819 139.024L15.631 144.69L12.2351 137.405L14.1747 136.507L16.4541 141.372Z" fill="white"/>
<path d="M7.0012 120.557L9.06634 120L10.0253 123.579L21.0033 120.682L21.7037 123.271L10.7257 126.167L11.6847 129.747L9.61956 130.304L7.0012 120.557Z" fill="white"/>
<path d="M5.09278 100.168L18.6023 100.1L18.6265 102.796L5.11698 102.864L5.09278 100.168Z" fill="white"/>
<path d="M20.5629 82.1581L20.1347 84.8054L10.1252 89.3031L19.1951 90.7632L18.7669 93.4105L5.42277 91.27L5.85099 88.6227L15.9322 84.1288L6.79062 82.665L7.21885 80.0176L20.5629 82.1581Z" fill="white"/>
<path d="M17.4119 53.62L19.3257 54.5563L17.6643 57.877L27.8377 62.9003L26.6316 65.3155L16.4582 60.2922L14.7981 63.5892L12.8843 62.653L17.4119 53.62Z" fill="white"/>
<path d="M28.3787 39.2321C29.4799 38.79 30.6123 38.6595 31.8238 38.8432C33.0114 39.0256 34.1336 39.5383 35.1676 40.3562C36.2017 41.1741 36.9643 42.1445 37.4314 43.266C37.8986 44.3875 38.0301 45.515 37.8714 46.6985C37.69 47.8571 37.2259 48.929 36.43 49.9356C35.6592 50.9198 34.7113 51.6322 33.6102 52.0743C32.5091 52.5163 31.3766 52.6468 30.1651 52.4631C28.9775 52.2807 27.8554 51.768 26.7974 50.9489C25.7633 50.1309 25.0008 49.1606 24.5562 48.0641C24.0891 46.9426 23.9575 45.8151 24.115 44.6553C24.2964 43.4968 24.7618 42.4011 25.5564 41.4182C26.3536 40.3878 27.3015 39.6754 28.3787 39.2321ZM26.6663 44.8626C26.5818 45.5495 26.6884 46.2465 27.0124 46.9075C27.3352 47.5922 27.8302 48.1907 28.5426 48.7531C29.2563 49.2917 29.955 49.6626 30.6901 49.7971C31.4241 49.9554 32.1216 49.8971 32.7815 49.6461C33.4414 49.3952 33.9908 48.9714 34.4787 48.3537C34.9665 47.736 35.2646 47.0843 35.3491 46.3974C35.4335 45.7106 35.3256 45.0373 35.0029 44.3526C34.6801 43.6679 34.1851 43.0694 33.4727 42.507C32.7603 41.9446 32.0604 41.5974 31.3252 41.463C30.5913 41.3047 29.8937 41.3629 29.2338 41.6139C28.5739 41.8649 28.0006 42.2873 27.5128 42.9051C27.0488 43.5241 26.7507 44.1757 26.6663 44.8626Z" fill="white"/>
<path d="M38.4258 28.1803L43.4409 34.2881C44.1155 35.1107 44.7852 35.5755 45.4978 35.6849C46.1865 35.7931 46.8929 35.5684 47.568 35.0322C48.2431 34.4959 48.5877 33.8706 48.6256 33.1574C48.6384 32.4667 48.3207 31.6869 47.6687 30.8893L42.6536 24.7816L44.7305 23.1041L49.7456 29.2118C50.532 30.1834 51.0319 31.1398 51.1962 32.1022C51.3844 33.0658 51.2885 33.9666 50.9087 34.8046C50.5289 35.6427 49.9379 36.398 49.1371 37.0467C47.8849 38.0767 46.5689 38.5074 45.2116 38.3636C43.8543 38.2199 42.5789 37.4368 41.3867 35.9906L36.3716 29.8829L38.4258 28.1803Z" fill="white"/>
<path d="M62.2231 14.3313C63.598 14.5952 64.8043 15.3269 65.7967 16.4764L63.2626 17.7481C62.667 17.2396 62.0123 16.9425 61.252 16.8305C60.5143 16.7436 59.7639 16.8944 58.977 17.2817C58.3372 17.6052 57.8582 18.0565 57.4922 18.6331C57.1502 19.2109 56.9954 19.8702 57.0052 20.5859C57.0137 21.3254 57.2372 22.0763 57.6491 22.885C58.0385 23.6686 58.5322 24.2909 59.1315 24.7281C59.707 25.164 60.3404 25.4122 61.0316 25.4728C61.6989 25.5322 62.3525 25.4001 62.9924 25.0765C63.7554 24.688 64.3337 24.1705 64.6795 23.5213C65.0493 22.8735 65.1827 22.1654 65.1051 21.3745L67.6392 20.1028C67.9906 21.5996 67.8934 22.9771 67.2759 24.2316C66.6809 25.5112 65.6211 26.5276 64.1202 27.2822C62.9637 27.8643 61.825 28.1136 60.6788 28.0527C59.5326 27.9917 58.4758 27.6017 57.5296 26.9315C56.5608 26.2362 55.7958 25.3134 55.1879 24.1368C54.5812 22.9363 54.2838 21.7761 54.2993 20.585C54.3135 19.4175 54.6105 18.3367 55.2354 17.3925C55.8378 16.4232 56.7404 15.6607 57.8969 15.0786C59.3991 14.3002 60.8256 14.0424 62.2231 14.3313Z" fill="white"/>
<path d="M82.9984 6.4254L86.376 19.455L83.754 20.1261L82.283 14.4692L76.6746 15.9111L78.1456 21.568L75.525 22.2153L72.1474 9.18564L74.7693 8.51459L76.1412 13.7848L81.7244 12.3654L80.3526 7.09518L82.9984 6.4254Z" fill="white"/>
<path d="M100.051 2.77981L101.927 7.12321L106.572 8.0379L103.007 11.1381L103.547 15.8396L99.4842 13.4301L95.189 15.3948L96.2249 10.7773L93.0087 7.31618L97.7244 6.89958L100.051 2.77981Z" fill="#F3764F"/>
</svg>
